#!OML:ASF F:\VICON\USERDATA\INSTALL\rory3\rory3.ASF
:FULLY-SPECIFIED
:DEGREES
3311
root 0.028637 16.0002 -2.49699 8.77133 5.61783 0.382126
lowerback 27.1203 1.23576 -2.48465
upperback 14.3318 1.10884 0.491428
thorax 0.956295 0.42083 1.66979
lowerneck -4.61481 -8.79391 -16.7358
upperneck -2.25447 -11.5032 27.071
head 2.94841 -5.54218 10.7791
rclavicle 4.91992e-015 -1.2275e-014
rhumerus 22.3583 20.1817 -82.0874
rradius 27.7029
rwrist 9.61474
rhand -8.06303 4.93967
rfingers 7.12502
rthumb 17.8482 -24.2613
lclavicle 4.91992e-015 -1.2275e-014
lhumerus 29.1599 -2.76663 89.092
lradius 9.68844
lwrist -16.7335
lhand -14.2201 32.4102
lfingers 7.12502
lthumb 11.9169 62.051
rfemur -40.7909 -8.60792 19.425
rtibia 54.8732
rfoot -30.273 -6.74057
rtoes -23.184
lfemur -42.446 2.65652 -18.4509
ltibia 54.3237
lfoot -19.5002 -7.63145
ltoes -8.16279
3312
root 0.0311328 16.0156 -2.49408 8.8745 5.53417 0.215917
lowerback 27.1293 1.26307 -2.38643
upperback 14.2714 1.16302 0.541847
thorax 0.880399 0.451426 1.65426
lowerneck -4.63252 -8.81044 -16.7968
upperneck -2.26539 -11.5209 27.094
head 2.95856 -5.54988 10.7958
rclavicle 1.04362e-014 1.00386e-014
rhumerus 21.9263 19.9196 -82.1858
rradius 27.4746
rwrist 9.6409
rhand -8.04479 4.92739
rfingers 7.12502
rthumb 17.8657 -24.272
lclavicle 1.04362e-014 1.00386e-014
lhumerus 28.9137 -2.7453 89.0319
lradius 9.77596
lwrist -16.7229
lhand -14.0646 31.6357
lfingers 7.12502
lthumb 12.0668 61.2677
rfemur -40.7365 -8.47901 19.5937
rtibia 54.5667
rfoot -29.7145 -6.77161
rtoes -24.007
lfemur -42.4273 2.72786 -18.2797
ltibia 54.1027
lfoot -19.4293 -7.62065
ltoes -7.963
3313
root 0.0374025 16.0272 -2.49355 9.04849 5.5102 0.268687
lowerback 27.0886 1.26107 -2.40068
upperback 14.2218 1.15711 0.534529
thorax 0.842618 0.448749 1.65586
lowerneck -4.78355 -8.84112 -16.8568
upperneck -2.17863 -11.5601 27.1137
head 3.02424 -5.55521 10.8024
rclavicle -1.37161e-014 -3.67752e-015
rhumerus 21.551 19.8534 -82.0937
rradius 27.354
rwrist 9.48838
rhand -8.04714 4.9472
rfingers 7.12502
rthumb 17.8635 -24.2524
lclavicle -1.37161e-014 -3.67752e-015
lhumerus 28.6638 -2.73729 88.9938
lradius 9.98457
lwrist -16.7575
lhand -13.6266 31.2255
lfingers 7.12502
lthumb 12.4892 60.8323
rfemur -40.8023 -8.53857 19.5494
rtibia 54.2938
rfoot -29.9933 -6.70443
rtoes -23.2387
lfemur -42.4635 2.62801 -18.3505
ltibia 53.8659
lfoot -19.3317 -7.43275
ltoes -8.46423
3314
root 0.0447927 16.0408 -2.49286 9.2978 5.53475 0.357199
lowerback 26.9117 1.22087 -2.39227
upperback 14.2086 1.11266 0.51221
thorax 0.910952 0.427769 1.63983
lowerneck -5.04017 -8.89658 -16.8748
upperneck -2.0811 -11.6241 27.0938
head 3.11125 -5.56563 10.7792
rclavicle -8.24956e-015 5.56597e-015
rhumerus 21.259 19.8834 -81.8947
rradius 27.3547
rwrist 9.36994
rhand -7.90797 4.8777
rfingers 7.12502
rthumb 17.9974 -24.3096
lclavicle -8.24956e-015 5.56597e-015
lhumerus 28.4683 -2.72343 88.958
lradius 10.2397
lwrist -16.8014
lhand -12.9326 30.8805
lfingers 7.12502
lthumb 13.1582 60.4453
rfemur -40.9273 -8.64307 19.466
rtibia 54.0344
rfoot -29.5194 -6.51672
rtoes -23.6013
lfemur -42.5924 2.45978 -18.4588
ltibia 53.6194
lfoot -19.2315 -7.20645
ltoes -9.07439
3315
root 0.0495052 16.0583 -2.49171 9.48668 5.5514 0.281361
lowerback 26.7886 1.18762 -2.2706
upperback 14.1687 1.09994 0.52581
thorax 0.922845 0.427718 1.58944
lowerneck -5.05958 -8.92497 -16.8861
upperneck -2.14785 -11.6486 27.0713
head 3.10049 -5.57938 10.7692
rclavicle -8.24956e-015 1.58531e-014
rhumerus 20.9219 19.9091 -81.7072
rradius 27.3592
rwrist 9.4138
rhand -7.54282 4.77189
rfingers 7.12502
rthumb 18.3487 -24.3827
lclavicle -8.24956e-015 1.58531e-014
lhumerus 28.1974 -2.72763 88.9054
lradius 10.4233
lwrist -16.7425
lhand -12.4269 30.2256
lfingers 7.12502
lthumb 13.6456 59.7583
rfemur -41.0074 -8.73246 19.594
rtibia 53.7611
rfoot -29.7133 -6.36858
rtoes -23.2978
lfemur -42.6663 2.41351 -18.3898
ltibia 53.3764
lfoot -19.203 -7.04801
ltoes -9.77802
3316
root 0.0556976 16.0766 -2.49072 9.63992 5.5449 0.142863
lowerback 26.7179 1.16712 -2.13018
upperback 14.1095 1.10539 0.554402
thorax 0.888004 0.43736 1.53936
lowerneck -4.93479 -8.89474 -16.845
upperneck -2.27483 -11.5988 27.0483
head 3.02682 -5.56866 10.7652
rclavicle 6.95746e-015 -1.04362e-014
rhumerus 20.5934 20.1226 -81.4015
rradius 27.348
rwrist 9.17168
rhand -7.09618 4.79574
rfingers 7.12502
rthumb 18.7783 -24.3179
lclavicle 6.95746e-015 -1.04362e-014
lhumerus 27.9605 -2.71448 88.83
lradius 10.4478
lwrist -16.4353
lhand -12.0519 29.2721
lfingers 7.12502
lthumb 14.007 58.7802
rfemur -41.0351 -8.79085 19.7773
rtibia 53.4595
rfoot -29.4809 -6.2868
rtoes -23.329
lfemur -42.7122 2.38695 -18.2483
ltibia 53.1435
lfoot -19.1194 -7.01922
ltoes -9.41784
3317
root 0.0637581 16.0877 -2.49207 9.83047 5.56426 0.0374287
lowerback 26.6551 1.12683 -1.96235
upperback 14.0538 1.09119 0.550952
thorax 0.855219 0.44034 1.44374
lowerneck -4.90516 -8.89306 -16.7744
upperneck -2.35281 -11.5908 27.075
head 2.99592 -5.57032 10.7644
rclavicle -6.36111e-015 -1.23743e-014
rhumerus 20.2639 20.1061 -81.2619
rradius 27.2843
rwrist 9.2435
rhand -6.81636 5.15793
rfingers 7.12502
rthumb 19.0474 -23.9294
lclavicle -6.36111e-015 -1.23743e-014
lhumerus 27.7823 -2.74709 88.7646
lradius 10.4682
lwrist -16.4654
lhand -11.786 28.4701
lfingers 7.12502
lthumb 14.2633 57.9603
rfemur -41.0798 -8.87863 19.887
rtibia 53.1595
rfoot -29.7394 -6.044
rtoes -22.7021
lfemur -42.8331 2.37254 -18.1629
ltibia 52.9356
lfoot -19.0069 -7.01703
ltoes -9.31849
3318
root 0.0671316 16.0994 -2.49083 9.98475 5.57421 -0.00352344
lowerback 26.5612 1.1325 -1.96555
upperback 14.0401 1.09982 0.569768
thorax 0.88221 0.443297 1.46468
lowerneck -4.98282 -8.9103 -16.697
upperneck -2.37258 -11.6046 27.0339
head 2.99876 -5.57342 10.7302
rclavicle -8.15017e-015 1.19271e-015
rhumerus 20.0171 20.321 -80.9353
rradius 27.3392
rwrist 9.16941
rhand -6.43717 5.34243
rfingers 7.12502
rthumb 19.4121 -23.7086
lclavicle -8.15017e-015 1.19271e-015
lhumerus 27.5878 -2.7701 88.7219
lradius 10.6319
lwrist -16.6951
lhand -11.4309 27.946
lfingers 7.12502
lthumb 14.6054 57.4118
rfemur -41.0752 -8.92903 19.9449
rtibia 52.8845
rfoot -29.9589 -5.94871
rtoes -22.3991
lfemur -42.8875 2.37382 -18.1285
ltibia 52.7402
lfoot -18.8879 -7.08564
ltoes -8.9547
3319
root 0.0664911 16.1154 -2.48537 9.9715 5.42278 0.0425627
lowerback 26.5947 1.24432 -2.28488
upperback 14.0577 1.17046 0.607945
thorax 0.880679 0.457812 1.6701
lowerneck -5.0228 -8.8894 -16.6135
upperneck -2.39548 -11.5658 26.9219
head 2.97522 -5.55327 10.6775
rclavicle -1.0635e-014 2.83268e-015
rhumerus 19.8347 20.7536 -80.5055
rradius 27.3379
rwrist 8.99856
rhand -5.98732 5.44264
rfingers 7.12502
rthumb 19.8445 -23.5643
lclavicle -1.0635e-014 2.83268e-015
lhumerus 27.3902 -2.70156 88.7209
lradius 10.7357
lwrist -16.7106
lhand -10.8888 27.1804
lfingers 7.12502
lthumb 15.1276 56.6076
rfemur -40.8866 -8.82386 19.8506
rtibia 52.6478
rfoot -29.7539 -5.70885
rtoes -22.1156
lfemur -42.6889 2.51016 -18.1898
ltibia 52.5552
lfoot -18.8422 -7.19503
ltoes -8.23769
3320
root 0.0704987 16.1225 -2.48352 10.0359 5.29141 0.0443069
lowerback 26.6013 1.29111 -2.37665
upperback 14.0275 1.20628 0.579303
thorax 0.841463 0.471677 1.68187
lowerneck -5.00267 -8.88865 -16.6236
upperneck -2.44736 -11.5598 26.965
head 2.96038 -5.55386 10.6968
rclavicle 2.06239e-014 -6.85807e-015
rhumerus 19.6633 21.1713 -80.0926
rradius 27.259
rwrist 8.82898
rhand -5.46657 5.57292
rfingers 7.12502
rthumb 20.3451 -23.3814
lclavicle 2.06239e-014 -6.85807e-015
lhumerus 27.2941 -2.69917 88.6774
lradius 10.6429
lwrist -16.6653
lhand -10.1605 26.4075
lfingers 7.12502
lthumb 15.8291 55.7804
rfemur -40.8424 -8.73418 19.7948
rtibia 52.4627
rfoot -29.4765 -5.46875
rtoes -21.8416
lfemur -42.6542 2.61039 -18.2157
ltibia 52.4182
lfoot -18.8028 -7.19461
ltoes -8.02023
3321
root 0.0810069 16.1246 -2.48647 10.2265 5.2246 -0.0246873
lowerback 26.4879 1.2551 -2.2612
upperback 13.9884 1.1854 0.531444
thorax 0.851903 0.469474 1.57029
lowerneck -5.02986 -8.88816 -16.626
upperneck -2.51569 -11.5484 27.056
head 2.95198 -5.54929 10.7307
rclavicle -8.15017e-015 1.20762e-014
rhumerus 19.5478 21.5679 -79.6523
rradius 27.3311
rwrist 8.75068
rhand -4.82741 5.59513
rfingers 7.12502
rthumb 20.9592 -23.2925
lclavicle -8.15017e-015 1.20762e-014
lhumerus 27.2281 -2.71883 88.6656
lradius 10.5962
lwrist -16.7564
lhand -9.30424 26.0799
lfingers 7.12502
lthumb 16.6536 55.3855
rfemur -41.065 -8.81634 19.9032
rtibia 52.3126
rfoot -29.4319 -5.38463
rtoes -22.0824
lfemur -42.8501 2.64183 -18.183
ltibia 52.3375
lfoot -18.674 -7.27289
ltoes -7.26059
3322
root 0.092215 16.131 -2.48842 10.3582 5.14933 -0.0522251
lowerback 26.4189 1.23586 -2.1241
upperback 13.9405 1.18813 0.451395
thorax 0.831746 0.482178 1.40504
lowerneck -5.02786 -8.9048 -16.5803
upperneck -2.50481 -11.5785 27.0991
head 2.96247 -5.56422 10.7342
rclavicle -4.12478e-015 1.74434e-014
rhumerus 19.3258 22.0241 -79.2111
rradius 27.5356
rwrist 8.32294
rhand -4.46215 5.20044
rfingers 7.12502
rthumb 21.3101 -23.6479
lclavicle -4.12478e-015 1.74434e-014
lhumerus 27.1064 -2.83802 88.6546
lradius 10.5801
lwrist -16.9173
lhand -8.73369 25.6553
lfingers 7.12502
lthumb 17.2028 54.9138
rfemur -41.2574 -8.98211 19.9929
rtibia 52.1945
rfoot -29.5934 -5.34963
rtoes -22.3883
lfemur -42.9665 2.65449 -18.1999
ltibia 52.2832
lfoot -18.6187 -7.22345
ltoes -7.3193
3323
root 0.097262 16.1362 -2.48744 10.3963 5.06229 -0.183095
lowerback 26.3632 1.23297 -2.05223
upperback 13.9172 1.19903 0.448511
thorax 0.831269 0.490989 1.35874
lowerneck -4.96807 -8.90423 -16.7129
upperneck -2.4781 -11.5881 27.2028
head 2.9793 -5.57118 10.7976
rclavicle 3.47873e-016 -5.71506e-016
rhumerus 19.185 22.6429 -78.6805
rradius 27.5719
rwrist 7.83195
rhand -4.09954 5.22485
rfingers 7.12502
rthumb 21.6584 -23.5838
lclavicle 3.47873e-016 -5.71506e-016
lhumerus 26.9552 -2.84798 88.6844
lradius 10.5683
lwrist -17.1515
lhand -8.06659 25.2289
lfingers 7.12502
lthumb 17.8448 54.4302
rfemur -41.2548 -9.02541 20.1453
rtibia 52.0808
rfoot -29.8669 -5.18979
rtoes -22.1984
lfemur -42.986 2.75287 -18.0829
ltibia 52.2655
lfoot -18.5623 -7.3011
ltoes -6.7858
3324
root 0.0977809 16.139 -2.48504 10.4214 4.9784 -0.23821
lowerback 26.3258 1.25567 -2.18291
upperback 13.8906 1.19951 0.476649
thorax 0.81655 0.482266 1.46364
lowerneck -4.85713 -8.88227 -16.8116
upperneck -2.54379 -11.5532 27.1788
head 2.93743 -5.56395 10.8163
rclavicle 4.89507e-015 -6.21202e-016
rhumerus 18.992 22.5424 -78.5156
rradius 27.4892
rwrist 8.52586
rhand -3.04597 5.7585
rfingers 7.12502
rthumb 22.6698 -22.93
lclavicle 4.89507e-015 -6.21202e-016
lhumerus 26.8139 -2.78216 88.7619
lradius 10.4786
lwrist -17.4399
lhand -7.30129 25.808
lfingers 7.12502
lthumb 18.581 54.9406
rfemur -41.221 -9.0365 20.2075
rtibia 52.001
rfoot -29.9452 -5.05519
rtoes -22.0924
lfemur -42.9688 2.84866 -18.0295
ltibia 52.24
lfoot -18.5033 -7.41996
ltoes -6.08452
3325
root 0.0986769 16.1416 -2.48413 10.4139 4.8981 -0.245008
lowerback 26.3559 1.26831 -2.25951
upperback 13.874 1.19541 0.421918
thorax 0.784343 0.478367 1.44833
lowerneck -4.80768 -8.87045 -16.8231
upperneck -2.56193 -11.5416 27.2282
head 2.92606 -5.56246 10.8401
rclavicle -2.35684e-014 1.64122e-014
rhumerus 18.8118 22.5626 -78.3152
rradius 27.5746
rwrist 8.94531
rhand -2.33881 6.00397
rfingers 7.12502
rthumb 23.3484 -22.6
lclavicle -2.35684e-014 1.64122e-014
lhumerus 26.7359 -2.79523 88.7172
lradius 10.3632
lwrist -17.6732
lhand -6.86323 26.1305
lfingers 7.12502
lthumb 19.0024 55.2223
rfemur -41.1917 -9.08704 20.2262
rtibia 51.9378
rfoot -29.576 -4.81292
rtoes -22.2249
lfemur -42.9391 2.95335 -18.0479
ltibia 52.2521
lfoot -18.6111 -7.24626
ltoes -7.27779
